<svg width="32" height="33" viewBox="0 0 32 33" fill="none" xmlns="http://www.w3.org/2000/svg">
<path d="M17.8352 5.53519C18.4311 4.91941 19.1436 4.42839 19.9312 4.09076C20.7189 3.75312 21.5658 3.57563 22.4227 3.56861C23.2796 3.56159 24.1293 3.72519 24.9223 4.04987C25.7154 4.37456 26.4359 4.85384 27.0418 5.45978C27.6477 6.06572 28.127 6.7862 28.4517 7.57923C28.7764 8.37226 28.94 9.22199 28.933 10.0789C28.9259 10.9358 28.7484 11.7827 28.4108 12.5703C28.0732 13.3579 27.5822 14.0705 26.9664 14.6664L14.1664 27.4664C12.9555 28.6773 11.3132 29.3575 9.60078 29.3575C7.88834 29.3575 6.24605 28.6773 5.03518 27.4664C3.8243 26.2555 3.14404 24.6132 3.14404 22.9008C3.14404 21.1884 3.8243 19.5461 5.03518 18.3352L17.8352 5.53519ZM25.8352 6.66639C24.9242 5.75569 23.6889 5.24408 22.4008 5.24408C21.1127 5.24408 19.8773 5.75569 18.9664 6.66639L13.1312 12.5L20 19.3688L25.8352 13.5352C26.2863 13.0842 26.6442 12.5488 26.8883 11.9596C27.1325 11.3703 27.2582 10.7387 27.2582 10.1008C27.2582 9.46293 27.1325 8.83132 26.8883 8.24203C26.6442 7.65275 26.2863 7.11734 25.8352 6.66639ZM14.1664 23.1352C14.0164 22.9852 13.8129 22.901 13.6008 22.901C13.3886 22.901 13.1852 22.9852 13.0352 23.1352L10.6352 25.5352C10.4994 25.6711 10.3381 25.7789 10.1606 25.8524C9.98314 25.926 9.7929 25.9638 9.60078 25.9638C9.40865 25.9638 9.21841 25.926 9.04093 25.8524C8.86344 25.7789 8.70219 25.6711 8.56638 25.5352C8.4552 25.4215 8.31256 25.3437 8.15681 25.3118C8.00105 25.2798 7.8393 25.2952 7.69236 25.356C7.54542 25.4167 7.42001 25.52 7.33227 25.6526C7.24452 25.7852 7.19845 25.941 7.19998 26.1C7.19999 26.2064 7.22123 26.3117 7.26244 26.4098C7.30364 26.5078 7.364 26.5967 7.43998 26.6712C8.01474 27.2435 8.79307 27.5644 9.60417 27.5635C10.4153 27.5626 11.1929 27.24 11.7664 26.6664L14.1664 24.2664C14.3164 24.1164 14.4006 23.9129 14.4006 23.7008C14.4006 23.4887 14.3164 23.2852 14.1664 23.1352Z" fill="#1648CE"/>
</svg>
