<svg width="32" height="33" viewBox="0 0 32 33" fill="none" xmlns="http://www.w3.org/2000/svg">
<path d="M28 27.1667H30.6667V29.8333H1.33337V27.1667H4.00004V4.50001C4.00004 4.14638 4.14052 3.80724 4.39056 3.5572C4.64061 3.30715 4.97975 3.16667 5.33337 3.16667H26.6667C27.0203 3.16667 27.3595 3.30715 27.6095 3.5572C27.8596 3.80724 28 4.14638 28 4.50001V27.1667ZM14.6667 11.1667H12V13.8333H14.6667V16.5H17.3334V13.8333H20V11.1667H17.3334V8.50001H14.6667V11.1667ZM18.6667 27.1667H21.3334V19.1667H10.6667V27.1667H13.3334V21.8333H18.6667V27.1667Z" fill="#117639"/>
</svg>
