<svg width="27" height="24" viewBox="0 0 27 24" fill="none" xmlns="http://www.w3.org/2000/svg">
<path d="M23.625 10.0001C23.625 17.0001 13.5 23.0001 13.5 23.0001C13.5 23.0001 3.375 17.0001 3.375 10.0001C3.375 7.61317 4.44174 5.32399 6.34054 3.63616C8.23935 1.94833 10.8147 1.00012 13.5 1.00012C16.1853 1.00012 18.7606 1.94833 20.6595 3.63616C22.5583 5.32399 23.625 7.61317 23.625 10.0001Z" stroke="white" stroke-width="2" stroke-linecap="round" stroke-linejoin="round"/>
<path d="M13.5 13.0001C15.364 13.0001 16.875 11.657 16.875 10.0001C16.875 8.34327 15.364 7.00012 13.5 7.00012C11.636 7.00012 10.125 8.34327 10.125 10.0001C10.125 11.657 11.636 13.0001 13.5 13.0001Z" stroke="white" stroke-width="2" stroke-linecap="round" stroke-linejoin="round"/>
</svg>
