<svg width="32" height="33" viewBox="0 0 32 33" fill="none" xmlns="http://www.w3.org/2000/svg">
<path d="M16.375 3.5C14.6511 3.5 12.9978 4.18482 11.7788 5.40381C10.5598 6.62279 9.875 8.27609 9.875 10C9.875 11.7239 10.5598 13.3772 11.7788 14.5962C12.9978 15.8152 14.6511 16.5 16.375 16.5C18.0989 16.5 19.7522 15.8152 20.9712 14.5962C22.1902 13.3772 22.875 11.7239 22.875 10C22.875 8.27609 22.1902 6.62279 20.9712 5.40381C19.7522 4.18482 18.0989 3.5 16.375 3.5ZM8.26463 18.125C7.83666 18.1233 7.41257 18.2061 7.01667 18.3686C6.62076 18.5312 6.26084 18.7703 5.95755 19.0722C5.65425 19.3741 5.41354 19.733 5.24922 20.1281C5.0849 20.5233 5.00021 20.947 5 21.375C5 24.1229 6.35363 26.1948 8.46938 27.5451C10.5526 28.8728 13.3606 29.5 16.375 29.5C19.3894 29.5 22.1974 28.8728 24.2806 27.5451C26.3964 26.1964 27.75 24.1229 27.75 21.375C27.75 20.513 27.4076 19.6864 26.7981 19.0769C26.1886 18.4674 25.362 18.125 24.5 18.125H8.26463Z" fill="#E35F47"/>
<g clip-path="url(#clip0_325_129)">
<path fill-rule="evenodd" clip-rule="evenodd" d="M22.0624 24.7764C22.0624 24.9144 22.1744 25.0264 22.3124 25.0264H23.6874C23.8255 25.0264 23.9374 24.9144 23.9374 24.7763V23.6875C23.9374 23.5494 24.0494 23.4375 24.1874 23.4375H25.2763C25.4144 23.4375 25.5263 23.3256 25.5263 23.1875V21.8125C25.5263 21.6744 25.4144 21.5625 25.2763 21.5625H24.1874C24.0494 21.5625 23.9374 21.4506 23.9374 21.3125V20.2237C23.9374 20.0856 23.8255 19.9737 23.6874 19.9737H22.3124C22.1744 19.9737 22.0624 20.0856 22.0624 20.2237V21.3125C22.0624 21.4506 21.9505 21.5625 21.8124 21.5625H20.7236C20.5856 21.5625 20.4736 21.6744 20.4736 21.8125V23.1875C20.4736 23.3256 20.5856 23.4375 20.7236 23.4375H21.8124C21.9505 23.4375 22.0624 23.5494 22.0624 23.6875V24.7764ZM23.6414 24.4803C23.6414 24.6184 23.5295 24.7303 23.3914 24.7303H22.6085C22.4704 24.7303 22.3585 24.6184 22.3585 24.4803V23.3915C22.3585 23.2534 22.2466 23.1415 22.1085 23.1415H21.0197C20.8816 23.1415 20.7697 23.0295 20.7697 22.8915V22.1086C20.7697 21.9705 20.8816 21.8586 21.0197 21.8586H22.1085C22.2466 21.8586 22.3585 21.7466 22.3585 21.6086V20.5197C22.3585 20.3817 22.4704 20.2697 22.6085 20.2697H23.3914C23.5295 20.2697 23.6414 20.3817 23.6414 20.5197V21.6086C23.6414 21.7466 23.7533 21.8586 23.8914 21.8586H24.9802C25.1183 21.8586 25.2302 21.9705 25.2302 22.1086V22.8915C25.2302 23.0295 25.1183 23.1415 24.9802 23.1415H23.8914C23.7533 23.1415 23.6414 23.2534 23.6414 23.3915V24.4803Z" fill="#FAE9E9"/>
<path d="M23.6874 24.9014H22.3124V25.1514H23.6874V24.9014ZM23.8124 23.6875V24.7763H24.0624V23.6875H23.8124ZM25.2763 23.3125H24.1874V23.5625H25.2763V23.3125ZM25.4013 21.8125V23.1875H25.6513V21.8125H25.4013ZM24.1874 21.6875H25.2763V21.4375H24.1874V21.6875ZM23.8124 20.2237V21.3125H24.0624V20.2237H23.8124ZM22.3124 20.0987H23.6874V19.8487H22.3124V20.0987ZM22.1874 21.3125V20.2237H21.9374V21.3125H22.1874ZM20.7236 21.6875H21.8124V21.4375H20.7236V21.6875ZM20.5986 23.1875V21.8125H20.3486V23.1875H20.5986ZM21.8124 23.3125H20.7236V23.5625H21.8124V23.3125ZM22.1874 24.7764V23.6875H21.9374V24.7764H22.1874ZM22.6085 24.8553H23.3914V24.6053H22.6085V24.8553ZM22.2335 23.3915V24.4803H22.4835V23.3915H22.2335ZM21.0197 23.2665H22.1085V23.0165H21.0197V23.2665ZM20.6447 22.1086V22.8915H20.8947V22.1086H20.6447ZM22.1085 21.7336H21.0197V21.9836H22.1085V21.7336ZM22.2335 20.5197V21.6086H22.4835V20.5197H22.2335ZM23.3914 20.1447H22.6085V20.3947H23.3914V20.1447ZM23.7664 21.6086V20.5197H23.5164V21.6086H23.7664ZM24.9802 21.7336H23.8914V21.9836H24.9802V21.7336ZM25.3552 22.8915V22.1086H25.1052V22.8915H25.3552ZM23.8914 23.2665H24.9802V23.0165H23.8914V23.2665ZM23.7664 24.4803V23.3915H23.5164V24.4803H23.7664ZM23.8914 23.0165C23.6843 23.0165 23.5164 23.1844 23.5164 23.3915H23.7664C23.7664 23.3224 23.8224 23.2665 23.8914 23.2665V23.0165ZM25.1052 22.8915C25.1052 22.9605 25.0493 23.0165 24.9802 23.0165V23.2665C25.1873 23.2665 25.3552 23.0986 25.3552 22.8915H25.1052ZM24.9802 21.9836C25.0493 21.9836 25.1052 22.0395 25.1052 22.1086H25.3552C25.3552 21.9015 25.1873 21.7336 24.9802 21.7336V21.9836ZM23.5164 21.6086C23.5164 21.8157 23.6843 21.9836 23.8914 21.9836V21.7336C23.8224 21.7336 23.7664 21.6776 23.7664 21.6086H23.5164ZM23.3914 20.3947C23.4604 20.3947 23.5164 20.4507 23.5164 20.5197H23.7664C23.7664 20.3126 23.5985 20.1447 23.3914 20.1447V20.3947ZM22.4835 20.5197C22.4835 20.4507 22.5395 20.3947 22.6085 20.3947V20.1447C22.4014 20.1447 22.2335 20.3126 22.2335 20.5197H22.4835ZM22.1085 21.9836C22.3156 21.9836 22.4835 21.8157 22.4835 21.6086H22.2335C22.2335 21.6776 22.1775 21.7336 22.1085 21.7336V21.9836ZM20.8947 22.1086C20.8947 22.0395 20.9506 21.9836 21.0197 21.9836V21.7336C20.8126 21.7336 20.6447 21.9015 20.6447 22.1086H20.8947ZM21.0197 23.0165C20.9506 23.0165 20.8947 22.9605 20.8947 22.8915H20.6447C20.6447 23.0986 20.8126 23.2665 21.0197 23.2665V23.0165ZM22.4835 23.3915C22.4835 23.1844 22.3156 23.0165 22.1085 23.0165V23.2665C22.1775 23.2665 22.2335 23.3224 22.2335 23.3915H22.4835ZM23.3914 24.8553C23.5985 24.8553 23.7664 24.6874 23.7664 24.4803H23.5164C23.5164 24.5493 23.4604 24.6053 23.3914 24.6053V24.8553ZM22.6085 24.6053C22.5395 24.6053 22.4835 24.5493 22.4835 24.4803H22.2335C22.2335 24.6874 22.4014 24.8553 22.6085 24.8553V24.6053ZM21.8124 23.5625C21.8815 23.5625 21.9374 23.6185 21.9374 23.6875H22.1874C22.1874 23.4804 22.0196 23.3125 21.8124 23.3125V23.5625ZM20.3486 23.1875C20.3486 23.3946 20.5165 23.5625 20.7236 23.5625V23.3125C20.6546 23.3125 20.5986 23.2565 20.5986 23.1875H20.3486ZM20.7236 21.4375C20.5165 21.4375 20.3486 21.6054 20.3486 21.8125H20.5986C20.5986 21.7435 20.6546 21.6875 20.7236 21.6875V21.4375ZM21.9374 21.3125C21.9374 21.3815 21.8815 21.4375 21.8124 21.4375V21.6875C22.0196 21.6875 22.1874 21.5196 22.1874 21.3125H21.9374ZM22.3124 19.8487C22.1053 19.8487 21.9374 20.0166 21.9374 20.2237H22.1874C22.1874 20.1547 22.2434 20.0987 22.3124 20.0987V19.8487ZM24.0624 20.2237C24.0624 20.0166 23.8946 19.8487 23.6874 19.8487V20.0987C23.7565 20.0987 23.8124 20.1547 23.8124 20.2237H24.0624ZM24.1874 21.4375C24.1184 21.4375 24.0624 21.3815 24.0624 21.3125H23.8124C23.8124 21.5196 23.9803 21.6875 24.1874 21.6875V21.4375ZM25.6513 21.8125C25.6513 21.6054 25.4834 21.4375 25.2763 21.4375V21.6875C25.3453 21.6875 25.4013 21.7435 25.4013 21.8125H25.6513ZM25.2763 23.5625C25.4834 23.5625 25.6513 23.3946 25.6513 23.1875H25.4013C25.4013 23.2565 25.3453 23.3125 25.2763 23.3125V23.5625ZM24.0624 23.6875C24.0624 23.6185 24.1184 23.5625 24.1874 23.5625V23.3125C23.9803 23.3125 23.8124 23.4804 23.8124 23.6875H24.0624ZM22.3124 24.9014C22.2434 24.9014 22.1874 24.8454 22.1874 24.7764H21.9374C21.9374 24.9835 22.1053 25.1514 22.3124 25.1514V24.9014ZM23.6874 25.1514C23.8946 25.1514 24.0624 24.9835 24.0624 24.7763H23.8124C23.8124 24.8454 23.7565 24.9014 23.6874 24.9014V25.1514Z" fill="#FAE9E9"/>
<rect x="22" y="20" width="2" height="5" fill="white"/>
<rect x="20.5" y="23.5" width="2" height="5" transform="rotate(-90 20.5 23.5)" fill="white"/>
</g>
<defs>
<clipPath id="clip0_325_129">
<rect width="6" height="6" fill="white" transform="translate(20 19.5)"/>
</clipPath>
</defs>
</svg>
